<svg xmlns="http://www.w3.org/2000/svg" viewBox="0 0 1045.54 482.66"><defs><style>.cls-1{fill:red;}.cls-2{fill:none;stroke:red;stroke-miterlimit:10;stroke-width:2px;}</style></defs><title>Asset 2</title><g id="Layer_2" data-name="Layer 2"><g id="Layer_1-2" data-name="Layer 1"><path class="cls-1" d="M213.77,1.83l36.44,72.05-4.14-72h7.29l-1.53,89.94h-4.41L211,19.59,215,91.77h-7.2l1.53-89.94Z"/><path class="cls-1" d="M258.77,1.83h9.71V91.77h-9.71Z"/><path class="cls-1" d="M279.82,1.83l36.45,72.05-4.14-72h7.29l-1.53,89.94h-4.41L277,19.59l4.05,72.18h-7.2l1.53-89.94Z"/><path class="cls-1" d="M360.19,17c-6.3-8.94-13.77-12.31-25.65-12.31V43.82l17.28-3v8.55l-17.28-3V88.92c10.35,0,20.07-3.24,27.36-14.65l.54.26-1.89,17.24H324.82V1.83h35.91v14.9Z"/><path class="cls-1" d="M415,18.68C410.32,10,404.2,5.85,396.55,4.55V91.77h-9.81V4.55C379.09,5.85,373,10,368.29,18.68l-.63-.26V1.83h48V18.42Z"/><path class="cls-1" d="M428.05,1.83l16.38,45.23,12-45.23h6.84l.27.52L445.42,50.56V91.77H435.7V52.37l-18.27-50,.27-.52Z"/><path class="cls-1" d="M457.4,54.06h17.28v8H457.4Z"/><path class="cls-1" d="M486,1.83l36.45,72.05-4.14-72h7.29l-1.53,89.94h-4.41L483.23,19.59l4,72.18h-7.2l1.53-89.94Z"/><path class="cls-1" d="M531,1.83h9.72V91.77H531Z"/><path class="cls-1" d="M552.08,1.83l36.45,72.05-4.14-72h7.29l-1.53,89.94h-4.41L549.29,19.59l4.05,72.18h-7.2l1.53-89.94Z"/><path class="cls-1" d="M632.45,17c-6.3-8.94-13.77-12.31-25.65-12.31V43.82l17.28-3v8.55l-17.28-3V88.92c10.35,0,20.07-3.24,27.36-14.65l.54.26-1.89,17.24H597.08V1.83H633v14.9Z"/><path class="cls-1" d="M697.61,36.3h-10l-.27-.39c.27-16.58-3.87-31.88-12-31.88-7.2,0-12.78,14.65-12.78,32.4,0,27.35,7.47,43.93,18.9,43.93,10,0,14.49-13.6,16.65-26l1,.26c-.9,17.62-7.65,38.74-22.23,38.74-14.22,0-22.59-19.95-22.59-43.8,0-26.69,9-49.24,23.67-49.24C690.14.28,697.43,16.09,697.61,36.3Z"/><path class="cls-1" d="M739,17c-6.29-8.94-13.76-12.31-25.64-12.31V43.82l17.27-3v8.55l-17.27-3V88.92c10.35,0,20.06-3.24,27.35-14.65l.54.26-1.89,17.24H703.64V1.83h35.9v14.9Z"/><path class="cls-1" d="M752.42,1.83l36.44,72.05-4.14-72H792l-1.53,89.94h-4.41L749.62,19.59l4,72.18h-7.2L748,1.83Z"/><path class="cls-1" d="M844.75,18.68C840.07,10,834,5.85,826.3,4.55V91.77h-9.81V4.55C808.84,5.85,802.72,10,798,18.68l-.62-.26V1.83h48V18.42Z"/><path class="cls-2" d="M62.47,7.61c83.69,0,121.46,90.87,121.46,187.26,0,104.64-48.51,195-117,195H1V7.61ZM41,359c7,8.26,17.41,15.42,30.74,15.42,34.44,0,70-49.57,70-160.27C141.71,81.41,90.61,20.83,41,20.28Z"/><path class="cls-2" d="M289.09,174.49c-17-11-47-5-55.54,35.25V389.83H198.74v-250L231.32,120h2.23v67.2h.37c7-43,30.73-71,56.65-70.5v56.18Z"/><path class="cls-2" d="M438,282.44c-4.81,52.87-25.55,114-68.87,114-44.44,0-71.1-62.78-71.1-133.83,0-78.76,27.77-146,72.95-146,40,0,60.36,54.52,62.58,108l-9.26,24.78H323.16C328.72,310,351.3,348,381.67,348c29.62,0,44.43-34.7,52.21-66.65ZM323.16,194.87c-.74,8.81-1.11,18.17-1.11,27.53h75.54c-1.11-44.06-18.51-86.46-42.21-86.46C337.23,135.94,326.49,161.27,323.16,194.87Z"/><path class="cls-2" d="M589,214.14V389.83H554.6V343.57h-.74c-5.92,20.93-23,52.87-52.58,52.87-26.66,0-49.62-25.88-49.62-66.09,0-72.7,57.39-100.24,102.57-107.39V207c0-43.51-13-78.2-35.18-78.2-23.7,0-35.18,43.51-24.07,95.83l-1.11,2.2H455.73c2.59-66.64,33-110.15,71.47-110.15C565.34,116.66,589,158,589,214.14ZM482.76,304.47c0,36.35,15.18,61.68,35.92,61.68,22.22,0,33.33-33.59,35.55-50.12V261.51c-6.29-8.26-17.4-16-30.73-16C505.35,245.54,482.76,263.71,482.76,304.47Z"/><path class="cls-2" d="M847.88,194.87v195H813.07V195.42c0-31.4-10.36-49-28.88-49-23.7,0-35.55,34.7-37,52.32V389.83H712.35V195.42c0-31.4-10.74-49-28.88-49-24.07,0-35.92,34.7-37.4,52.32V389.83H611.26v-250L643.85,120h1.85v51.77h.37c5.92-23.13,24.07-55.07,52.58-55.07,24.07,0,43,22,47.4,60,5.92-28.09,25.55-60,53.32-60C827.89,116.66,847.88,146.4,847.88,194.87Z"/><path class="cls-2" d="M1044.51,120l-.74,1.66h-40.36C1000.08,65.44,985.64,17,946.38,17c-21.84,0-42.21,21.48-42.21,56.18,0,101.34,138.86,84.26,138.86,212.59,0,54.52-30.73,110.7-82.57,110.7-54.81,0-89.62-60-90.36-131.63l1.11-1.65H912c3,79.86,26.29,116.76,58.5,116.76,23.33,0,43-23.68,43-61.68,0-104.65-134.42-83.72-134.42-215.9C879,47.81,909.72,1,956,1,1010.08,1,1038.22,62.13,1044.51,120Z"/><path class="cls-1" d="M251.28,417.3c0,40.42-18.72,59.74-36.24,59.74-17,0-29.94-17.54-30.45-34.91,4-5.37,10.44,7.62,17.1,8,.41,0,5.66-4.49,5.65-4.07-1,15.72-2.21,36.63,8.71,36.63,11.94,0,14-26.22,13.07-55.3-5,6.95-6.85,5.24-15.1,5.24-15.49,0-32.57-10.91-32.57-33.58,0-23.23,17-36.69,33.84-36.69C231.8,362.33,251.28,378.35,251.28,417.3Zm-24.34-12.25c0-24-3.14-48.15-13.81-48.15-8,0-9.11,15.05-9.11,32.06,0,22.86,2.51,48.51,13.55,48.51C225.58,437.47,226.94,422.61,226.94,405.05Z"/><path class="cls-1" d="M316.69,417.3c0,40.42-18.73,59.74-36.25,59.74-17,0-29.94-17.54-30.44-34.91,4-5.37,10.43,7.62,17.09,8,.41,0,5.67-4.49,5.65-4.07-1,15.72-2.21,36.63,8.71,36.63,11.94,0,14-26.22,13.07-55.3-4.95,6.95-6.84,5.24-15.1,5.24-15.49,0-32.56-10.91-32.56-33.58,0-23.23,16.94-36.69,33.83-36.69C297.2,362.33,316.69,378.35,316.69,417.3Zm-24.35-12.25c0-24-3.14-48.15-13.81-48.15-8,0-9.1,15.05-9.1,32.06,0,22.86,2.5,48.51,13.55,48.51C291,437.47,292.34,422.61,292.34,405.05Z"/><path class="cls-1" d="M363.33,416.34c-2.83,5.18-9-5.23-14.91-5.49-.33,0-4.26,3.52-4.26,3.19.25-17.19.54-36.11-7.59-36.11-7,0-8.73,15.42-8.73,34.8,0,27.43,4.29,45,15.21,45,9.52,0,10.87-16.55,13.41-27.34.26-.68,1.15,1,1.16,1.7-1.27,17.74-4.67,41.73-19.4,41.73-14,0-19.4-22.55-19.4-47.24,0-27.43,5.56-53.09,20.54-53.09C351.94,373.54,363.07,395.13,363.33,416.34Z"/><path class="cls-1" d="M416.36,432.35c-1.65,17.56-12.48,34.09-27.34,34.09-15.24,0-28.1-17.13-28.1-40.72,0-26.15,13.24-44.75,28.73-44.75,13.72,0,24.41,14.73,25.17,32.47-.41,4.39-3.36,3.32-7.67,4.26-16.94,3.68-17.16-2.28-31.93,6.79,1.9,20.12,7.7,33.29,18.12,33.29,10.16,0,12.21-17.4,14.88-28C409.75,427.64,416.37,431.63,416.36,432.35ZM377,403.59c-.25,2.93-4.52,9.36-4.52,12.47,12.86,1.54,13.26-.48,24.5-6.92-.38-14.63-4.5-29.2-12.63-29.2C378.1,379.94,378.11,392.43,377,403.59Z"/><path class="cls-1" d="M469.23,404.14c0,31.91-1.33,31.79-7.2,63.15-1.09,5.87-10.83,7.21-11.93,1.34-5.87-31.18,7.19-32.4,7.19-64.13,0-11.52-7.69-13.74-14.17-13.74-8.51,0-16.58,8.78-17.09,14.63-.23,31.27,13.06,32.53,7.19,63.25-1.11,5.86-11.06,4.71-11.91-1.2-5.9-41.09-12.33-41.76-7.19-82.95.8-6.44,10.88.19,16.54-3,.28-.15,2.49-3.61,2.5-3.3.32,9-7.32,9.21-7.26,18.26,0,.07.24-.92.26-1,2-7.87,11.88-14.62,22-14.62S469.23,387.31,469.23,404.14Z"/><path class="cls-1" d="M502.3,447.87c.46-.71.85,2.19.84,3-1.65,10.24-1.73,23.62-9.47,23.62s-8.84-13-8.84-26.49c0-28.44-3.24-28.13-8.66-56-1.05-5.43-.54-4.14-6-5.13-1-.18-4.89.5-4.3-.31,10.64-14.44,17.78-8.91,29.13-22.81.24-.3,1.73-3.3,1.74-2.92.38,10.51-14.45,15.91-7.72,24,5.61,6.74,12.26-7.43,21-7.16.3,0-3.95,3.3-4,3.59-1.4,4.36,7,11.86,2.88,13.85-6.57,3.18-18.88-12.1-20.73-5-7.06,27,8.59,29,8.59,56.88,0,7.5-1.7,15.89,2.24,15.89C502.3,462.82,500.91,453.17,502.3,447.87Z"/><path class="cls-1" d="M560.46,452.65c-2.42,9.15-14.22,12.09-23,12.09-11.81,0-27.64-9.95-27.64-38.11,0-29.26,16.72-44,30.56-44,5.59,0,5.66-2.65,9.47,2.11,2.13-21.94,5.86-20.87,10.67-42.37,1.42-6.34-2.26-9.28,3.46-12.35.28-.15-2.22,4.48-2.22,4.79.32,66.57,16.63,67.27,10.81,133.58-.51,5.82-9.3,1.24-12.63-3.56-4.8-6.91-12.18-7.39-9.6-15.4C551.16,447,560.49,452.53,560.46,452.65Zm-29.38-38.27c0,31.09,3.61,51.13,11.48,51.13,6.6,0,5.78-14.94,7.3-23,.47-6.57,10.81-6.2,10.81-12.78,0-34.75-13.54-42.32-21.54-42.32S531.08,394.44,531.08,414.38Z"/><path class="cls-1" d="M604.21,399.72c-5.84-3.66-18.16-5.05-21.08,8.3-1.19,29.87,13,31.33,7.18,60.65-1.17,5.85-11,4.68-11.9-1.23-5.91-41.09-12.33-41.76-7.19-82.95.8-6.44,10.85.17,16.52-3,.34-.18,2.63-3.68,2.64-3.3.38,11.15-7.32,11.3-7.25,22.45a5.93,5.93,0,0,0,.18-.65c2.41-14.27,10.83-21.41,19.72-21.23,4,8.44,7.63,8.09,6.9,17.39C609.76,398.38,604.55,399.88,604.21,399.72Z"/><path class="cls-1" d="M660.57,432.35c-1.65,17.56-12.47,34.09-27.33,34.09-15.24,0-28.1-17.13-28.1-40.72,0-26.15,13.24-44.75,28.73-44.75,13.72,0,24.4,14.73,25.16,32.47-.4,4.39-3.35,3.32-7.66,4.26-16.94,3.68-17.16-2.28-31.94,6.79,1.91,20.12,7.71,33.29,18.13,33.29,10.15,0,12.21-17.4,14.88-28C654,427.64,660.58,431.63,660.57,432.35Zm-39.38-28.76c-.26,2.93-4.52,9.36-4.52,12.47,12.86,1.54,13.26-.48,24.5-6.92-.38-14.63-4.5-29.2-12.63-29.2C622.32,379.94,622.33,392.43,621.19,403.59Z"/><path class="cls-1" d="M712.39,409.62c0,29.17-1.57,29-7.36,57.6-1.17,5.79-7.51,7.69-11.11,3-4.68-6.09,6.79-10,6.66-17.69a11.64,11.64,0,0,0-.44,1.22c-2,6.95-11.4,12.68-21.56,12.68-9.15,0-20.74-4.88-20.74-18.23,0-24.14,25-29.95,40.55-32.33,2.37-1.18-5.37-6-5.37-8.63,0-14.45-.73-29.69-8.35-29.69-8.13,0-8.41,17.47-4.6,34.85.07.4-3.82-2.31-4.24-2.29-6.53.35-13,11.23-16.13,5.5.89-22.13,14.56-34.65,27.77-34.65S712.39,391,712.39,409.62Zm-36.45,30c0,12.06,1.49,24.19,8.6,24.19,7.62,0,7.72-15,8.48-20.47.3-9,8.35-9.37,7.41-18.37-2.16-2.75-9.66-1.21-14.23-1.21C680,423.76,675.94,426.08,675.94,439.62Z"/><path class="cls-1" d="M801.08,403.22c0,32.37-1.33,32.25-7.2,64.08-1.08,5.87-10.85,7.19-11.94,1.32-5.87-31.74,7.2-32.94,7.2-65.21,0-10.43-7.19-12.65-13.54-12.65-8.12,0-15.82,7.86-16.33,13.72-.23,31.72,13.06,33,7.2,64.15-1.1,5.87-10.85,4.54-11.94-1.33-5.87-31.74-7.19-31.62-7.19-63.89,0-10.43-.06-19.91-6.28-19.91-8.26,0-8.69,15.18-9.2,21-.23,31.73-1.33,31.58-7.19,62.76-1.11,5.87-11.12,7.1-12,1.19-5.9-41.09,2.06-41.9,7.19-83.1.81-6.43.15-7,5.81-10.2.28-.15-1.23,3-1.22,3.31.32,8.59,7.19,8.43,7.25,17,0,.06,0,1.07,0,1,2-7.68,4.77-22.89,14.55-22.89,8.25,0,12.26,13.6,13.79,26.22,2-9.33,11.22-26.22,20.75-26.22C790.59,373.63,801.08,387.13,801.08,403.22Z"/><path class="cls-1" d="M854.23,406.1c0,.3-3.82-2.76-4.12-2.75-5.9.27-10.91,10.65-14.56,6-1-16.27-3.81-31.25-11.43-31.25-5.08,0-5.3,8.11-5.3,15.42,0,22.86,27.36,18.65,27.36,49.74,0,13.9-4.28,30.6-17.87,30.6-12.19,0-18.14-16-19.53-35.36,0-.41-4-4.23-3.55-4.25,6-.35,5.61,1.15,9.18,5.93.63,16.83,9.71,21.49,17.83,21.49,5.85,0,13.12-1.4,13.12-9.45,0-23.22-41.47-19.38-41.47-50.65,0-13.35,11.72-20.61,23.4-20.61C839.23,381,851.94,388.37,854.23,406.1Z"/></g></g></svg>