<svg xmlns="http://www.w3.org/2000/svg" viewBox="0 0 691.8 842.26"><defs><style>.cls-1{fill:none;stroke:#fff;stroke-miterlimit:10;stroke-width:0.5px;}</style></defs><title>Asset 1</title><g id="Layer_2" data-name="Layer 2"><g id="Layer_1-2" data-name="Layer 1"><path class="cls-1" d="M337,216.78c0,222-138.45,515.63-332.85,625.12l-3.85-11c183.78-104,316-372.5,326.57-587.2C264.17,390.49,196.63,467,122.83,467,45.65,467,15.74,389.88,15.74,306.08,15.74,170.29,91.48.25,211.11.25,289.25.25,337,88.33,337,216.78Zm-9.65-1.84C326.88,92.61,283,12.48,211.11,12.48c-112.88,0-185.72,162.71-185.72,293.6,0,80.13,27,148.64,97.44,148.64C196.63,454.72,263.2,375.2,327.36,214.94Z"/><path class="cls-1" d="M691.55,216.78c0,222-138.45,515.63-332.85,625.12l-3.86-11c183.79-104,316-372.5,326.58-587.2C618.71,390.49,551.17,467,477.37,467c-77.18,0-107.09-77.07-107.09-160.87C370.28,170.29,446,.25,565.65.25,643.79.25,691.55,88.33,691.55,216.78Zm-9.65-1.84C681.42,92.61,637.52,12.48,565.65,12.48c-112.88,0-185.72,162.71-185.72,293.6,0,80.13,27,148.64,97.44,148.64C551.17,454.72,617.74,375.2,681.9,214.94Z"/></g></g></svg>